HIERARCHY
ROOT Hips
{
	OFFSET -1.602300 6.242603 43.997101
	CHANNELS 6 Xposition Yposition Zposition Zrotation Xrotation Yrotation
	JOINT Chest
	{
		OFFSET -0.204900 1.598101 7.917301
		CHANNELS 6 Xposition Yposition Zposition Zrotation Xrotation Yrotation
		JOINT Chest2
		{
			OFFSET 0.000000 0.000000 3.404099
			CHANNELS 6 Xposition Yposition Zposition Zrotation Xrotation Yrotation
			JOINT Neck
			{
				OFFSET 0.000000 0.000000 7.928600
				CHANNELS 6 Xposition Yposition Zposition Zrotation Xrotation Yrotation
				JOINT Head
				{
					OFFSET 0.000000 0.000000 2.173897
					CHANNELS 6 Xposition Yposition Zposition Zrotation Xrotation Yrotation
					End Site
					{
						OFFSET 0.000000 0.000001 10.404503
					}
				}
			}
			JOINT LeftCollar
			{
				OFFSET 2.833800 -1.396299 4.843300
				CHANNELS 6 Xposition Yposition Zposition Zrotation Xrotation Yrotation
				JOINT LeftShoulder
				{
					OFFSET 4.363600 0.000000 0.000000
					CHANNELS 6 Xposition Yposition Zposition Zrotation Xrotation Yrotation
					JOINT LeftElbow
					{
						OFFSET 0.000000 -0.000001 -10.306900
						CHANNELS 6 Xposition Yposition Zposition Zrotation Xrotation Yrotation
						JOINT LeftWrist
						{
							OFFSET 0.000000 -0.000001 -12.404900
							CHANNELS 6 Xposition Yposition Zposition Zrotation Xrotation Yrotation
							End Site
							{
								OFFSET 0.000000 0.000000 -2.173901
							}
						}
					}
				}
			}
			JOINT RightCollar
			{
				OFFSET -2.354800 -1.897200 5.063099
				CHANNELS 6 Xposition Yposition Zposition Zrotation Xrotation Yrotation
				JOINT RightShoulder
				{
					OFFSET -4.375800 0.000000 0.000000
					CHANNELS 6 Xposition Yposition Zposition Zrotation Xrotation Yrotation
					JOINT RightElbow
					{
						OFFSET 0.000000 -0.000001 -10.005001
						CHANNELS 6 Xposition Yposition Zposition Zrotation Xrotation Yrotation
						JOINT RightWrist
						{
							OFFSET 0.000000 -0.000001 -13.174900
							CHANNELS 6 Xposition Yposition Zposition Zrotation Xrotation Yrotation
							End Site
							{
								OFFSET 0.000000 0.000000 -2.173901
							}
						}
					}
				}
			}
		}
	}
	JOINT LeftHip
	{
		OFFSET 2.240600 0.386800 -2.614101
		CHANNELS 6 Xposition Yposition Zposition Zrotation Xrotation Yrotation
		JOINT LeftKnee
		{
			OFFSET 0.000000 -0.000001 -18.592899
			CHANNELS 6 Xposition Yposition Zposition Zrotation Xrotation Yrotation
			JOINT LeftAnkle
			{
				OFFSET 0.000000 -0.000001 -18.765800
				CHANNELS 6 Xposition Yposition Zposition Zrotation Xrotation Yrotation
				End Site
				{
					OFFSET 0.000000 -8.655000 0.000000
				}
			}
		}
	}
	JOINT RightHip
	{
		OFFSET -2.014900 -0.220900 -2.615898
		CHANNELS 6 Xposition Yposition Zposition Zrotation Xrotation Yrotation
		JOINT RightKnee
		{
			OFFSET 0.000000 -0.000001 -18.633900
			CHANNELS 6 Xposition Yposition Zposition Zrotation Xrotation Yrotation
			JOINT RightAnkle
			{
				OFFSET 0.000000 -0.000001 -18.285101
				CHANNELS 6 Xposition Yposition Zposition Zrotation Xrotation Yrotation
				End Site
				{
					OFFSET 0.000000 -7.524500 0.000000
				}
			}
		}
	}
}
MOTION
Frames: 6
Frame Time: 0.041667
-5.170100 26.032904 8.084808 0.962222 -2.531882 13.130958 -0.204899 1.598102 7.917312 -1.015988 8.597328 5.212556 0.000000 -0.000000 3.404099 -14.850657 -15.244446 -3.368094 -0.000002 -0.000009 7.928598 30.331265 20.522955 -28.966057 -0.000001 0.000002 2.173909 1.397389 4.097520 1.727691 2.833801 -1.396300 4.843301 -3.944774 16.649315 7.017697 4.363598 0.000009 -0.000001 -72.953414 -13.970483 -85.002401 -0.000001 0.000005 -10.306902 586.467035 -137.207804 580.667166 0.000006 0.000007 -12.404899 39.565216 352.793314 -307.377282 -2.354801 -1.897199 5.063102 10.903234 14.335548 -13.390234 -4.375793 0.000000 -0.000007 54.316161 -37.558360 119.954296 -0.000002 0.000003 -10.004990 -621.676059 -175.578018 -554.055766 -0.000004 0.000008 -13.174904 -180.572320 -151.523007 135.970748 2.240596 0.386802 -2.614104 144.004170 -30.431112 108.164235 -0.000000 -0.000001 -18.592897 -201.546492 56.653264 201.595082 -0.000003 -0.000001 -18.765795 -34.423921 7.302033 86.525267 -2.014897 -0.220899 -2.615893 -109.168819 -22.570196 -84.620184 0.000000 0.000003 -18.633886 162.438141 27.290169 -177.856500 -0.000006 -0.000006 -18.285084 -14.824891 34.100081 -210.951349
-5.182599 26.033905 8.089314 0.950709 -2.537853 12.920393 -0.204899 1.598101 7.917307 -0.976240 8.461755 4.998136 0.000001 0.000000 3.404093 -14.675870 -15.297525 -3.341882 -0.000004 0.000003 7.928599 29.601049 21.101111 -28.288673 -0.000000 -0.000002 2.173906 1.328054 4.096907 1.712052 2.833800 -1.396299 4.843310 -3.756176 16.826316 6.830511 4.363598 0.000011 0.000001 -72.757579 -14.030342 -85.926382 -0.000002 0.000005 -10.306903 586.503098 -137.221711 580.580833 0.000005 0.000002 -12.404902 39.052300 352.701352 -307.355890 -2.354801 -1.897199 5.063105 10.713754 14.561849 -13.012020 -4.375791 0.000006 -0.000008 54.782506 -37.739688 120.268430 -0.000000 0.000006 -10.004994 -621.477765 -175.500522 -554.440223 -0.000005 0.000001 -13.174894 -179.333870 -151.228380 135.623282 2.240597 0.386804 -2.614104 143.945895 -30.354737 107.982620 -0.000001 0.000001 -18.592892 -201.465855 56.635372 201.511290 -0.000002 -0.000000 -18.765795 -34.310462 7.074343 87.048377 -2.014896 -0.220898 -2.615900 -109.234082 -22.521500 -84.712200 0.000001 0.000004 -18.633881 162.581766 27.283792 -177.804755 -0.000006 -0.000008 -18.285086 -14.878797 34.075571 -210.847093
-5.194600 26.035305 8.092812 1.424756 -2.364119 12.771351 -0.204900 1.598101 7.917308 -1.442411 8.256325 4.724843 0.000000 0.000004 3.404097 -14.546240 -15.307163 -3.325654 -0.000000 -0.000002 7.928604 28.875448 21.656170 -27.533845 0.000000 0.000002 2.173906 1.286790 4.072680 1.699501 2.833803 -1.396301 4.843310 -3.355921 16.762425 6.496796 4.363597 0.000012 -0.000005 -72.610635 -14.109089 -86.617829 0.000001 0.000006 -10.306901 586.476543 -137.202982 580.461550 0.000005 0.000004 -12.404900 38.729198 352.777795 -307.411351 -2.354800 -1.897204 5.063106 10.932446 14.803539 -12.804668 -4.375794 0.000005 -0.000010 55.071283 -37.936438 120.776186 0.000002 0.000007 -10.004991 -621.317283 -175.399722 -554.883366 -0.000006 0.000007 -13.174896 -178.056475 -150.987397 135.270203 2.240598 0.386805 -2.614101 143.421883 -30.240997 107.890337 0.000000 0.000003 -18.592894 -201.394425 56.616562 201.436882 -0.000002 0.000001 -18.765795 -34.200297 6.860227 87.559241 -2.014899 -0.220896 -2.615897 -109.822871 -22.443167 -84.859104 0.000001 0.000005 -18.633883 162.709012 27.281910 -177.763487 -0.000005 -0.000007 -18.285086 -14.925756 34.054446 -210.757535
-5.206298 26.037207 8.095608 1.439910 -2.362619 12.553404 -0.204901 1.598095 7.917304 -1.429726 8.106323 4.489984 0.000000 0.000001 3.404101 -14.410866 -15.260319 -3.306699 -0.000001 -0.000004 7.928600 28.158290 22.175562 -26.764863 -0.000000 0.000002 2.173908 1.236468 4.030752 1.698546 2.833802 -1.396302 4.843306 -2.778072 16.472463 5.871405 4.363597 0.000009 -0.000003 -72.518352 -14.385092 -87.044573 -0.000000 0.000000 -10.306900 586.437091 -137.179200 580.325548 0.000005 0.000008 -12.404901 38.258195 352.666491 -307.501673 -2.354801 -1.897202 5.063100 11.075363 14.922896 -12.281626 -4.375793 0.000003 -0.000007 55.261264 -38.300378 120.998126 -0.000002 0.000005 -10.004992 -621.128660 -175.285125 -555.315908 -0.000012 0.000002 -13.174891 -176.893744 -150.774090 134.865282 2.240597 0.386801 -2.614103 143.340290 -30.161910 107.708579 -0.000000 -0.000000 -18.592892 -201.318050 56.607341 201.375820 -0.000002 0.000001 -18.765797 -34.110286 6.696478 87.974776 -2.014897 -0.220899 -2.615898 -109.901357 -22.450910 -84.957527 0.000001 0.000005 -18.633884 162.827735 27.282031 -177.729035 -0.000005 -0.000004 -18.285088 -14.968790 34.034614 -210.677322
-5.218098 26.039602 8.098713 1.453982 -2.364550 12.331370 -0.204899 1.598100 7.917308 -1.415657 7.952199 4.251158 -0.000000 0.000001 3.404098 -14.261151 -15.232652 -3.297897 -0.000002 -0.000002 7.928600 27.437698 22.718215 -26.003413 0.000001 0.000002 2.173901 1.173091 3.984854 1.699005 2.833802 -1.396299 4.843300 -2.122742 16.128022 5.346144 4.363597 0.000012 -0.000002 -72.459155 -14.516365 -87.440293 -0.000002 0.000006 -10.306903 586.446818 -137.134899 580.198233 0.000006 0.000006 -12.404900 37.767705 352.579829 -307.586969 -2.354801 -1.897200 5.063096 11.188061 15.030110 -11.780744 -4.375791 0.000005 -0.000011 55.465685 -38.582673 121.215859 0.000004 0.000002 -10.004997 -620.915121 -175.178738 -555.750745 -0.000009 0.000005 -13.174896 -175.886974 -150.309528 134.565846 2.240598 0.386802 -2.614101 143.259967 -30.114188 107.521186 -0.000001 0.000001 -18.592892 -201.216594 56.610513 201.323856 -0.000003 -0.000000 -18.765795 -34.037486 6.573777 88.306402 -2.014899 -0.220897 -2.615898 -109.984453 -22.437610 -85.058668 0.000000 0.000006 -18.633886 162.965144 27.278500 -177.690868 -0.000005 -0.000005 -18.285086 -15.013917 34.011736 -210.589786
-5.230499 26.041801 8.101910 1.472028 -2.366040 12.094216 -0.204900 1.598102 7.917304 -1.409712 7.793818 4.039496 -0.000000 0.000001 3.404097 -14.054650 -15.210188 -3.267016 -0.000002 -0.000003 7.928605 26.659410 23.242082 -25.250198 -0.000001 -0.000003 2.173909 1.118158 3.931783 1.720897 2.833802 -1.396301 4.843304 -1.372262 15.715529 4.961709 4.363599 0.000013 -0.000001 -72.510893 -14.327806 -87.866327 -0.000001 0.000006 -10.306901 586.574242 -137.107032 580.105615 0.000004 0.000005 -12.404899 37.334507 352.511227 -307.715950 -2.354803 -1.897204 5.063101 11.263539 15.104029 -11.419729 -4.375791 0.000002 -0.000001 55.631273 -38.711118 121.437908 0.000004 0.000002 -10.004992 -620.614211 -175.015401 -556.211155 -0.000013 0.000003 -13.174895 -174.844209 -150.070389 134.349848 2.240596 0.386807 -2.614107 143.170150 -30.087093 107.319853 -0.000001 -0.000000 -18.592896 -201.094307 56.630157 201.283803 -0.000002 0.000002 -18.765799 -33.996983 6.528952 88.471946 -2.014895 -0.220895 -2.615903 -110.083860 -22.407300 -85.170779 -0.000000 0.000001 -18.633883 163.122976 27.270480 -177.646773 -0.000006 -0.000007 -18.285084 -15.063161 33.985560 -210.490352
